<?xml version="1.0" encoding="utf-8"?>
<!-- Generator: Adobe Illustrator 27.3.1, SVG Export Plug-In . SVG Version: 6.00 Build 0)  -->
<svg version="1.1" id="Layer_1" xmlns="http://www.w3.org/2000/svg" xmlns:xlink="http://www.w3.org/1999/xlink" x="0px" y="0px"
	 viewBox="0 0 330 305" style="enable-background:new 0 0 330 305;" xml:space="preserve">
<style type="text/css">
	.st0{clip-path:url(#SVGID_00000088106682847934165180000003837677965419055802_);}
	.st1{fill:none;stroke:#C55B28;stroke-width:3;stroke-miterlimit:10;}
	.st2{fill:none;stroke:#C55B28;stroke-width:5;stroke-miterlimit:10;}
	.st3{stroke:#000000;stroke-width:23;stroke-linecap:round;stroke-linejoin:round;}
	.st4{opacity:0.7;}
	.st5{fill:none;}
	.st6{fill:#FFC413;}
	.st7{fill:#FFB700;}
</style>
<g>
	<defs>
		<rect id="SVGID_1_" x="0.1" y="0.2" width="329.8" height="304.6"/>
	</defs>
	<clipPath id="SVGID_00000151530409706068399890000002561302562926438558_">
		<use xlink:href="#SVGID_1_"  style="overflow:visible;"/>
	</clipPath>
	<g style="clip-path:url(#SVGID_00000151530409706068399890000002561302562926438558_);">
		<path class="st1" d="M169,265c62.1,0,112.5-50.4,112.5-112.5C281.5,90.4,231.2,40,169,40C106.9,40,56.5,90.4,56.5,152.5
			C56.5,214.6,106.9,265,169,265z"/>
		<path class="st2" d="M169,302.3c82.7,0,149.8-67.1,149.8-149.8C318.8,69.8,251.7,2.7,169,2.7C86.3,2.7,19.2,69.8,19.2,152.5
			C19.2,235.2,86.3,302.3,169,302.3z"/>
		<path class="st3" d="M24.2,169.3c-9.2-0.1-15.1-9.2-10.3-18.3c9.2,4.3,16-4.8,23.2-19.6c3.7-7.5,5.1-11.3,8.2-20.3
			c0.6-1.7,1.2-3.2,2.1-4.5c-12.8,3.9-20.5,17.9-11,18.9c0.6,16.2-22.2,23.1-24.5,7.5c-1.9-12.9,13.5-31,38.2-33.2
			c40.6-3.6,30.7,66.6,3.3,66.9c-6.5,0.1-12.4-2.5-12.8-8.2C36.3,166.8,29.4,169.3,24.2,169.3z M43.7,149.6c1.3-1.6,3.3-3,5.8-4
			c4.7,7.3,11.8,3.9,15.3-1.8c6.9-14.1,5.9-39.8-11.6-39.3C49,114.7,46.6,137,43.7,149.6z"/>
		<path class="st3" d="M148.3,121.4c-2.8,1-4.9,3.4-5.2,7.5c4.6,0.8,2,19.9-4.5,19.9c-4,0,1.5-12.1,1.1-17
			c-0.7-11.1-13.4-7.5-11.9-1.5c2.4,1,1.1,4.8-0.3,9.4c-2.4,5.1-5,9.1-7.2,9.2c-3,0.1,2.4-11.9,2.8-16.8c1.3-11-11.9-7.4-11.5-1.4
			c2.1,1,0.8,4.6-0.9,9c-0.3,0.2-0.6,0.5-0.8,0.9c-0.8,1.9-2.1,3.1-3.5,3.5c1.9-8.6-0.3-18.5-7.5-19.4c-10.9-1.5-17.7,10.9-19,17.8
			c-1.9,10.8,3.1,17.2,10.2,17.6c4.9,0.3,11.2-3.3,13.8-8.7c1.1-0.1,2.2-0.4,3.3-0.7c0,0.2,0,0.3-0.1,0.5c-0.5,4.7,1.7,9,7,9
			c5.3-0.1,8.8-2.8,11.5-6.7c1,3.7,4,6.6,8.7,6.7C152.1,160.2,163.9,116.1,148.3,121.4z M93.8,136.1c-6.7,7.5-3.3,13.9,1.7,14.7
			c-3.8,1.4-8.9-3.2-7.6-10.6c0.6-3.3,4.4-11,10.1-11C101.7,129.1,100.5,140.8,93.8,136.1z"/>
		<path class="st3" d="M227.6,157.7c0.7-2.5-16-0.3-19.2,0.4c-4.9,12.4-8,33.2-12.2,43.6c-4.9,12.1-11.4,15.6-17.5,15.6
			c-10.6,0-20.6-10.3-11.9-24.8c8.1,7.1,16.3,4.2,24.8-10.6c4.4-7.9,7.8-16.4,11.4-22.8c-11.4,0.3-19.1,5.9-12.7,10.3
			c-2.3,21.6-31,16.4-22.3-4.8c1.1-2.7,2.8-4.9,4.9-6.6c-0.8-0.8-1.4-2-1.5-3.6c-0.8-7.9,7.6-18.8,6.7-22.9
			c-6.6,2.3-18.5,17.3-9.7,19.6c-0.8,5.7-4.9,8.6-8.1,9.2c-5.4-0.1-7.7-4.4-7.3-8.9c0.8-8.7,8.5-18.7,4.8-20.6
			c-0.6-6,12.5-9.6,11.5,1.4c5.2-5.3,9.7-6.6,12.9-6.9c4.9-0.5,5.9,5.3,4.9,9.1c-1.4,5.2-3.9,11.7-2.9,14.3c2.1-0.3,3.6-3.8,5.2-6.9
			c1.1-2,6.2-0.9,5.1,2.1c-0.8,2.2-2.2,4.9-3.9,7.5c5.5-0.8,11.2-1.1,16.3-1.4c0.8-1.1,2.3-2.6,3.5-2.6c1.2,0-0.1,2.6,0.3,2.6
			c5.3,0.1,13.4-0.8,17.4-0.2C232.8,150.4,232.8,157.5,227.6,157.7z"/>
		<path class="st3" d="M272,169.1c-2.8,1-4.9,3.4-5.2,7.5c4.6,0.8,2,19.9-4.5,19.9c-4,0,1.5-12.1,1.1-17
			c-0.7-11.1-13.4-7.5-11.9-1.5c2.4,1,1.1,4.8-0.3,9.4c-2.4,5.1-5,9.1-7.2,9.2c-3,0.1,2.4-11.9,2.8-16.8c1.3-11-11.9-7.4-11.5-1.4
			c2.1,1,0.8,4.6-0.9,9c-0.3,0.2-0.6,0.5-0.8,0.9c-0.8,1.9-2.1,3.1-3.5,3.5c1.9-8.6-0.3-18.5-7.5-19.4
			c-10.9-1.5-17.7,10.9-18.9,17.8c-1.9,10.8,3.1,17.2,10.2,17.6c4.9,0.3,11.2-3.3,13.8-8.7c1.1-0.1,2.2-0.3,3.3-0.7
			c0,0.2-0.1,0.3-0.1,0.5c-0.5,4.7,1.7,9,7,9c5.3-0.1,8.8-2.9,11.4-6.7c1.1,3.7,4,6.6,8.7,6.7C275.9,207.8,287.7,163.8,272,169.1z
			 M217.6,183.7c-6.7,7.5-3.3,13.9,1.7,14.7c-3.8,1.4-8.9-3.2-7.6-10.6c0.6-3.3,4.4-11,10.1-11C225.5,176.7,224.3,188.5,217.6,183.7
			z"/>
		<path class="st3" d="M293,179.8c5.2-5.3,9.7-6.6,12.9-6.9c4.9-0.5,5.9,5.3,4.9,9.1c-1.4,5.2-3.9,11.7-2.9,14.3
			c2.1-0.3,3.6-3.8,5.2-6.9c1.1-2,6.2-0.9,5.1,2.1c-2.1,6.1-9.2,16.4-15.1,16.2c-3.8-0.1-7.6-1.2-8-5.8c-0.8-7.9,7.6-18.8,6.7-22.9
			c-6.6,2.3-18.5,17.3-9.7,19.6c-0.8,5.7-4.9,8.6-8.1,9.2c-5.4-0.1-7.7-4.4-7.3-9c0.8-8.7,8.5-18.7,4.8-20.5
			C280.9,172.3,294,168.7,293,179.8L293,179.8z"/>
		<g class="st4">
			<rect x="-22.7" y="61.6" class="st5" width="293" height="191"/>
			<rect x="169.3" y="130.6" class="st5" width="188" height="112"/>
		</g>
		<g>
			<image style="overflow:visible;" width="452" height="263" xlink:href="5E842F8C.png"  transform="matrix(1 0 0 1 -60 24)">
			</image>
		</g>
		<g>
			<path class="st6" d="M26.2,165.3c-9.2-0.1-15.1-9.2-10.3-18.3c9.2,4.3,16-4.8,23.2-19.6c3.7-7.5,5.1-11.3,8.2-20.3
				c0.6-1.7,1.2-3.2,2.1-4.5c-12.8,3.9-20.5,17.9-11,18.9c0.6,16.2-22.2,23.1-24.5,7.5c-1.9-12.9,13.5-31,38.2-33.2
				c40.6-3.6,30.7,66.6,3.3,66.9c-6.5,0.1-12.4-2.5-12.8-8.2C38.3,162.8,31.4,165.3,26.2,165.3z M45.7,145.6c1.3-1.6,3.3-3,5.8-4
				c4.7,7.3,11.8,3.9,15.3-1.8c6.9-14.1,5.9-39.8-11.6-39.3C51,110.7,48.6,133,45.7,145.6z"/>
			<path class="st6" d="M150.3,117.4c-2.8,1-4.9,3.4-5.2,7.5c4.6,0.8,2,19.9-4.5,19.8c-4,0,1.5-12.1,1.1-17
				c-0.7-11.1-13.4-7.5-11.9-1.5c2.4,1,1.1,4.8-0.4,9.4c-2.4,5.1-5,9.1-7.2,9.2c-3,0.1,2.4-11.9,2.8-16.8c1.3-11-11.9-7.4-11.5-1.4
				c2.1,1,0.8,4.6-0.9,9c-0.3,0.2-0.6,0.5-0.8,0.9c-0.8,1.9-2.1,3.1-3.5,3.5c1.9-8.6-0.3-18.5-7.5-19.4
				c-10.9-1.5-17.7,10.9-18.9,17.8c-1.9,10.8,3.1,17.2,10.2,17.6c4.9,0.3,11.2-3.3,13.8-8.7c1.1-0.1,2.2-0.4,3.3-0.7
				c0,0.2,0,0.3-0.1,0.5c-0.5,4.7,1.7,9,7,9c5.3-0.1,8.8-2.8,11.5-6.7c1,3.7,4,6.6,8.7,6.7C154.1,156.2,165.9,112.1,150.3,117.4z
				 M95.8,132.1c-6.7,7.5-3.3,13.9,1.7,14.7c-3.8,1.4-8.9-3.2-7.6-10.6c0.6-3.3,4.4-11,10.1-11C103.7,125.1,102.5,136.8,95.8,132.1z
				"/>
			<path class="st6" d="M229.6,153.7c0.7-2.5-16-0.3-19.2,0.4c-4.9,12.4-8,33.2-12.2,43.6c-4.9,12.1-11.4,15.6-17.5,15.6
				c-10.6,0-20.6-10.3-11.9-24.8c8.1,7.1,16.3,4.2,24.8-10.6c4.4-7.9,7.8-16.4,11.4-22.8c-11.4,0.3-19.1,5.9-12.7,10.3
				c-2.3,21.6-31,16.4-22.3-4.8c1.1-2.7,2.8-4.9,4.9-6.6c-0.8-0.8-1.4-2-1.5-3.6c-0.8-7.9,7.6-18.8,6.7-22.9
				c-6.6,2.3-18.5,17.3-9.7,19.6c-0.8,5.7-4.9,8.6-8.1,9.2c-5.4-0.1-7.7-4.4-7.3-8.9c0.8-8.7,8.5-18.7,4.8-20.6
				c-0.6-6,12.5-9.6,11.5,1.4c5.2-5.3,9.7-6.6,12.9-6.9c4.9-0.5,5.9,5.3,4.9,9.1c-1.4,5.2-3.9,11.7-2.9,14.3
				c2.1-0.3,3.6-3.8,5.2-6.9c1.1-2,6.2-0.9,5.1,2.1c-0.8,2.2-2.2,4.9-3.9,7.5c5.5-0.8,11.2-1.1,16.3-1.4c0.8-1.1,2.3-2.6,3.5-2.6
				c1.2,0-0.1,2.6,0.3,2.6c5.3,0.1,13.4-0.8,17.4-0.2C234.8,146.4,234.8,153.5,229.6,153.7z"/>
			<path class="st6" d="M274,165.1c-2.8,1-4.9,3.4-5.2,7.5c4.6,0.8,2,19.9-4.5,19.9c-4,0,1.5-12.1,1.1-17
				c-0.7-11.1-13.4-7.5-11.9-1.5c2.4,1,1.1,4.8-0.3,9.4c-2.4,5.1-5,9.1-7.2,9.2c-3,0.1,2.4-11.9,2.8-16.8c1.3-11-11.9-7.4-11.5-1.4
				c2.1,1,0.8,4.6-0.9,9c-0.3,0.2-0.6,0.5-0.8,0.9c-0.8,1.9-2.1,3.1-3.5,3.5c1.9-8.6-0.3-18.5-7.5-19.4
				c-10.9-1.5-17.7,10.9-18.9,17.8c-1.9,10.8,3.1,17.2,10.2,17.6c4.9,0.3,11.2-3.3,13.8-8.7c1.1-0.1,2.2-0.3,3.3-0.7
				c0,0.2-0.1,0.3-0.1,0.5c-0.5,4.7,1.7,9,7,9c5.3-0.1,8.8-2.9,11.4-6.7c1.1,3.7,4,6.6,8.7,6.7C277.9,203.8,289.7,159.8,274,165.1z
				 M219.6,179.7c-6.7,7.5-3.3,13.9,1.7,14.7c-3.8,1.4-8.9-3.2-7.6-10.6c0.6-3.3,4.4-11,10.1-11
				C227.5,172.7,226.3,184.5,219.6,179.7z"/>
			<path class="st6" d="M295,175.8c5.2-5.3,9.7-6.6,12.9-6.9c4.9-0.5,5.9,5.3,4.9,9.1c-1.4,5.2-3.9,11.7-2.9,14.3
				c2.1-0.3,3.6-3.8,5.2-6.9c1.1-2,6.2-0.9,5.1,2.1c-2.1,6.1-9.2,16.4-15.1,16.2c-3.8-0.1-7.6-1.2-8-5.8c-0.8-7.9,7.6-18.8,6.7-22.9
				c-6.6,2.3-18.5,17.3-9.7,19.6c-0.8,5.7-4.9,8.6-8.1,9.2c-5.4-0.1-7.7-4.4-7.3-9c0.8-8.7,8.5-18.7,4.8-20.5
				C282.9,168.3,296,164.7,295,175.8L295,175.8z"/>
		</g>
		<path class="st7" d="M118.2,43.5c-1.6,0.7-3.1,1-4.5,0.8c-1.4-0.2-2.6-0.8-3.5-1.8l2.5-3.5c1.2,1.1,2.5,1.3,4,0.7
			c1.2-0.5,1.7-1.2,1.3-1.8c-0.2-0.5-0.7-0.7-1.5-0.6c-0.3,0-1.1,0.1-2.2,0.3c-1.6,0.2-3,0.2-4.1-0.2c-1.2-0.4-2-1.2-2.6-2.5
			c-0.7-1.4-0.7-2.8,0-4.1c0.6-1.3,1.7-2.4,3.2-3c1.3-0.6,2.6-0.8,3.8-0.7c1.3,0.1,2.4,0.7,3.5,1.6l-2.4,3.4c-1-0.9-2.1-1.1-3.2-0.6
			c-0.5,0.2-0.8,0.5-0.9,0.8c-0.2,0.3-0.2,0.6,0,0.9c0.2,0.3,0.5,0.5,0.9,0.6c0.5,0.1,1.3,0,2.5-0.1c0.8-0.1,1.5-0.1,2.1-0.2
			c0.5,0,1.2,0,1.9,0.1c0.7,0.1,1.3,0.4,1.8,0.8c0.5,0.4,1,1,1.3,1.8c0.7,1.5,0.7,2.9,0,4.3C121.2,41.6,120,42.7,118.2,43.5z"/>
		<path class="st7" d="M120.2,24.1l4.1-1.4l5.6,15.9l-4.1,1.4L120.2,24.1z"/>
		<path class="st7" d="M137.7,18.9l4.2-1l4,16.4l-3.2,0.8l-7.8-6.8l2,8.2l-4.2,1l-4-16.4l3.3-0.8l7.8,6.8L137.7,18.9L137.7,18.9z"/>
		<path class="st7" d="M156.8,33.3c-2.5,0.2-4.7-0.4-6.5-1.9c-1.8-1.5-2.9-3.5-3.1-6c-0.2-2.5,0.4-4.7,1.9-6.5
			c1.5-1.8,3.5-2.9,6-3.1c1.5-0.1,3,0.1,4.3,0.7c1.4,0.6,2.5,1.5,3.3,2.6l-3.5,2.5c-0.4-0.6-0.9-1-1.6-1.3c-0.7-0.3-1.4-0.4-2.2-0.3
			c-1.3,0.1-2.4,0.7-3.1,1.6c-0.7,0.9-1.1,2.1-0.9,3.4c0.1,1.4,0.6,2.4,1.6,3.2s2,1.1,3.4,0.9c0.8-0.1,1.5-0.3,2.1-0.7
			c0.6-0.4,1-0.9,1.3-1.6l3.9,1.8c-0.6,1.3-1.5,2.4-2.8,3.2S158.4,33.2,156.8,33.3L156.8,33.3z"/>
		<path class="st7" d="M170.3,28.4l6.5,0.2l-0.1,4.1l-10.9-0.3l0.4-16.9l10.7,0.3l-0.1,4l-6.4-0.2l-0.1,2.3l5.8,0.1l-0.1,4l-5.8-0.1
			L170.3,28.4L170.3,28.4z"/>
		<path class="st7" d="M184.2,33.4l0.6-3.1l6.6-4.8c0.7-0.5,1.2-0.9,1.5-1.2c0.3-0.3,0.5-0.7,0.6-1c0.1-0.4,0-0.8-0.2-1.1
			c-0.2-0.3-0.5-0.5-1-0.6c-1-0.2-1.8,0.3-2.6,1.3l-3.3-2.7c0.8-1.1,1.7-2,2.9-2.4c1.2-0.5,2.4-0.6,3.6-0.3c1.6,0.3,2.8,1,3.8,2.2
			c1,1.1,1.3,2.5,1,4.2c-0.2,1-0.6,1.8-1.2,2.5c-0.6,0.7-1.4,1.5-2.5,2.2l-2.7,1.9l5.2,1l-0.8,4.1L184.2,33.4L184.2,33.4z"/>
		<path class="st7" d="M209.4,37.4c-1.6,1.2-3.5,1.4-5.6,0.8c-2.1-0.7-3.5-1.9-4.2-3.8s-0.7-4.1,0.1-6.7c0.8-2.5,2-4.4,3.6-5.6
			s3.5-1.4,5.6-0.8c2.1,0.7,3.5,1.9,4.2,3.8c0.7,1.9,0.7,4.1-0.1,6.7C212.2,34.4,211,36.3,209.4,37.4z M203.8,29
			c-0.9,2.9-0.5,4.7,1.2,5.2c1.7,0.5,3-0.7,3.9-3.6c0.9-2.9,0.5-4.7-1.2-5.2C206,24.9,204.7,26.1,203.8,29z"/>
		<path class="st7" d="M211.5,40.3l1.3-2.9l7.5-3.1c0.8-0.3,1.3-0.6,1.7-0.9c0.4-0.2,0.7-0.5,0.8-0.9c0.2-0.4,0.2-0.7,0.1-1.1
			c-0.1-0.4-0.4-0.6-0.8-0.8c-0.9-0.4-1.8-0.2-2.8,0.7l-2.6-3.4c1-0.9,2.1-1.5,3.4-1.7c1.2-0.2,2.4,0,3.6,0.5c1.5,0.6,2.5,1.6,3.2,3
			c0.7,1.3,0.7,2.8,0,4.3c-0.4,0.9-1,1.6-1.7,2.2c-0.8,0.6-1.7,1.1-2.9,1.6l-3.1,1.3l4.8,2.1l-1.7,3.8L211.5,40.3L211.5,40.3z"/>
		<path class="st7" d="M234.6,39.5c1.4,0.8,2.4,1.9,2.9,3.3s0.3,2.8-0.6,4.4c-0.9,1.6-2.1,2.5-3.7,2.8c-1.5,0.3-3.1,0-4.6-0.9
			c-1.3-0.7-2.2-1.7-2.9-2.8c-0.6-1.1-0.8-2.3-0.6-3.7l4.3,0c-0.3,1.2,0.1,2.1,1.3,2.8c0.5,0.3,1,0.4,1.4,0.3c0.4-0.1,0.8-0.3,1-0.7
			c0.2-0.4,0.3-0.8,0.1-1.2c-0.1-0.4-0.5-0.7-0.9-1l-4.7-2.7l5.6-8.2l8.6,5l-2.1,3.6l-5.1-3l-1,1.5L234.6,39.5L234.6,39.5z"/>
		<path class="st7" d="M68.5,219.7l-4.1,2.4l-2.4-4.1l-12.6,7.5l-2.5-4.3l12.6-7.5l-2.5-4.1l4.1-2.5L68.5,219.7z"/>
		<path class="st7" d="M75.9,229.3l3.1,3.9l-15.2,12.1l-3.1-3.9l5.8-4.7l-3.4-4.3l-5.8,4.6l-3.1-3.9l15.2-12.1l3.1,3.9l-5.6,4.5
			l3.4,4.3L75.9,229.3z"/>
		<path class="st7" d="M74.5,249.3l5.4,5.2l-3.2,3.4l-9-8.6l13.4-14.1l8.9,8.5l-3.2,3.3l-5.3-5.1l-1.9,1.9l4.8,4.6l-3.2,3.3
			l-4.8-4.6L74.5,249.3z"/>
		<path class="st7" d="M104.6,260l-5.8-3.8l-1.8,2.6l5.7,3.8l-2.7,4l-5.7-3.8l-3.7,5.6l-4.1-2.8l10.7-16.2l10,6.6L104.6,260
			L104.6,260z"/>
		<path class="st7" d="M117.1,279.8c-2.6,0.9-5.2,0.8-7.8-0.4c-2.6-1.2-4.4-3.1-5.3-5.7c-1-2.6-0.8-5.2,0.3-7.8
			c1.2-2.6,3.1-4.4,5.7-5.3c2.6-0.9,5.2-0.8,7.8,0.4c2.6,1.2,4.4,3.1,5.3,5.7c1,2.6,0.8,5.2-0.3,7.8
			C121.7,277.1,119.7,278.8,117.1,279.8z M108.6,272c0.5,1.3,1.4,2.3,2.8,2.9c1.4,0.6,2.7,0.7,4,0.2c1.3-0.5,2.3-1.4,3-2.8
			c0.7-1.4,0.7-2.8,0.2-4.1c-0.5-1.3-1.4-2.3-2.8-2.9c-1.4-0.6-2.7-0.7-4-0.2c-1.3,0.5-2.3,1.4-3,2.8
			C108.2,269.4,108.1,270.7,108.6,272L108.6,272z"/>
		<path class="st7" d="M140.6,286.8c-2.4,1.4-5,1.7-7.7,1c-2.8-0.7-4.9-2.3-6.3-4.7c-1.4-2.4-1.8-5-1-7.7c0.7-2.8,2.3-4.8,4.7-6.2
			c2.4-1.4,5-1.7,7.7-1s4.9,2.3,6.3,4.7c1.4,2.4,1.8,5,1.1,7.7C144.6,283.3,143,285.4,140.6,286.8z M130.8,280.7
			c0.7,1.2,1.8,2,3.2,2.4s2.8,0.2,4-0.5c1.2-0.7,2-1.8,2.4-3.3s0.2-2.8-0.5-4.1c-0.7-1.2-1.8-2-3.2-2.4c-1.4-0.4-2.8-0.2-4,0.5
			c-1.2,0.7-2,1.8-2.4,3.3C130,278.2,130.1,279.5,130.8,280.7z"/>
		<path class="st7" d="M157.6,272c2.7,0.2,4.8,1.3,6.5,3.4c1.6,2,2.3,4.4,2.1,7.1c-0.2,2.8-1.3,5-3.3,6.7c-1.9,1.7-4.3,2.4-6.9,2.2
			l-7.9-0.7l1.6-19.4L157.6,272L157.6,272z M156.4,286.6c1.4,0.1,2.5-0.2,3.4-1.1c0.9-0.8,1.4-2,1.6-3.5c0.1-1.5-0.2-2.7-1-3.7
			c-0.8-1-1.8-1.5-3.2-1.6l-2.8-0.2l-0.8,9.8L156.4,286.6z"/>
		<path class="st7" d="M182.3,286.4l6.6-0.7l0.5,4.8l-11.6,1.2l-2-19.3l4.9-0.5L182.3,286.4L182.3,286.4z"/>
		<path class="st7" d="M197.3,284.1l7.3-1.7l1,4.6l-12.2,2.8l-4.3-18.9l12-2.7l1,4.5l-7.2,1.6l0.6,2.6l6.5-1.5l1,4.5l-6.5,1.5
			L197.3,284.1L197.3,284.1z"/>
		<path class="st7" d="M224.3,268.3l0.7,1.8c1,2.6,1,5.1,0,7.4c-1,2.3-2.9,4-5.5,5c-2.8,1.1-5.5,1.1-8,0s-4.3-3-5.3-5.6
			c-1-2.6-1-5.2,0.1-7.8c1.1-2.5,3-4.3,5.7-5.4c1.7-0.7,3.4-0.9,5.1-0.7c1.7,0.2,3.2,0.8,4.5,1.7l-3,3.8c-0.6-0.4-1.3-0.7-2.1-0.8
			c-0.8-0.1-1.7,0.1-2.6,0.4c-1.4,0.6-2.4,1.5-3,2.8c-0.5,1.3-0.5,2.7,0,4.1c0.5,1.4,1.5,2.4,2.7,3c1.3,0.6,2.7,0.6,4.4,0
			c2.1-0.8,3.2-2.2,3.2-4l-4.4,1.7l-1.6-4L224.3,268.3L224.3,268.3z"/>
		<path class="st7" d="M242.7,270.5l-2.2-1.9l-5.7,3.4l0.7,2.8l-4.6,2.7l-4.5-19.9l5.4-3.2l15.4,13.5L242.7,270.5z M233.7,267.6
			l3.4-2l-5.1-4.7L233.7,267.6z"/>
		<path class="st7" d="M257.4,260.2c-2.3,1.9-4.7,2.6-7.5,2.3c-2.7-0.3-5-1.5-6.8-3.8c-1.8-2.2-2.6-4.7-2.4-7.4
			c0.3-2.7,1.5-5,3.8-6.8c1.4-1.1,2.9-1.8,4.6-2.1c1.7-0.3,3.3-0.2,4.9,0.4l-1.8,4.6c-0.7-0.3-1.5-0.4-2.3-0.2
			c-0.8,0.2-1.6,0.5-2.3,1.1c-1.2,1-1.9,2.1-2,3.5c-0.1,1.4,0.3,2.6,1.3,3.9s2.2,1.9,3.5,2c1.4,0.2,2.6-0.3,3.8-1.2
			c0.7-0.6,1.2-1.2,1.5-2c0.3-0.8,0.4-1.6,0.2-2.3l4.9-0.8c0.2,1.6,0,3.2-0.6,4.8C259.8,257.8,258.8,259.1,257.4,260.2L257.4,260.2z
			"/>
		<path class="st7" d="M263.3,226.4l4.4,12.9l5.5,5l-3.3,3.7l-5.5-5l-13.3-3.2l3.8-4.1l7.6,2.3l-3-7.4L263.3,226.4L263.3,226.4z"/>
	</g>
</g>
</svg>
